<svg width="43" height="43" viewBox="0 0 43 43" fill="none" xmlns="http://www.w3.org/2000/svg">
<g id="Group">
<g id="Group_2">
<path id="Vector" d="M20.049 42.0391C27.2265 42.0391 34.7415 36.3878 35.8665 29.1241C37.2802 20.0078 27.2827 16.6778 20.049 16.6778C12.8152 16.6778 2.81773 19.9891 4.23523 29.1241C5.36023 36.3878 12.8677 42.0391 20.049 42.0391ZM29.094 29.3266C28.5915 33.9953 24.9465 36.1328 20.2702 36.0428C15.7665 35.9566 12.084 34.0553 11.5477 29.3266C10.9327 23.8928 15.6427 22.1866 20.049 22.1153C24.7177 22.0403 29.6715 23.9528 29.0902 29.3266H29.094Z" fill="url(#paint0_linear_1947_1396)"/>
<path id="Vector_2" d="M20.049 42.0391C27.2265 42.0391 34.7415 36.3878 35.8665 29.1241C37.2802 20.0078 27.2827 16.6778 20.049 16.6778C12.8152 16.6778 2.81773 19.9891 4.23523 29.1241C5.36023 36.3878 12.8677 42.0391 20.049 42.0391ZM29.094 29.3266C28.5915 33.9953 24.9465 36.1328 20.2702 36.0428C15.7665 35.9566 12.084 34.0553 11.5477 29.3266C10.9327 23.8928 15.6427 22.1866 20.049 22.1153C24.7177 22.0403 29.6715 23.9528 29.0902 29.3266H29.094Z" fill="url(#paint1_linear_1947_1396)"/>
<path id="Vector_3" d="M20.1202 36.9578C25.479 36.8866 31.4077 33.5753 32.1915 28.1078C33.1477 21.4403 25.3852 18.3541 20.0377 18.3016C14.4765 18.2453 6.92023 21.3016 7.91023 28.1116C8.72023 33.6766 14.6302 37.0291 20.1202 36.9578ZM20.049 22.1153C24.7177 22.0403 29.6302 24.9316 29.0902 29.3266C28.5165 33.9878 24.9427 36.1328 20.2665 36.0428C15.7627 35.9566 12.4815 33.9916 11.544 29.3266C10.824 25.7341 15.639 22.1866 20.0452 22.1153H20.049Z" fill="url(#paint2_linear_1947_1396)"/>
<g id="Vector_4" style="mix-blend-mode:multiply" opacity="0.5">
<path d="M7.19398 35.0978C8.72023 37.5991 14.0977 42.0391 20.3152 41.8216C26.7615 41.5966 31.854 37.1641 32.5702 36.0466C33.2865 34.9291 30.2415 38.4541 26.9752 39.4141C22.269 40.7978 16.989 41.3191 11.4765 38.2628C8.72398 36.7366 6.49273 33.9466 7.19398 35.0978Z" fill="#DE376D"/>
</g>
<path id="Vector_5" d="M20.1202 36.9578C25.0102 36.9578 28.4977 34.1416 27.3915 34.4866C26.289 34.8316 23.9302 36.0466 20.6452 36.0466C14.7502 36.0466 12.609 34.2991 11.919 34.0028C11.2327 33.7028 14.1052 36.9616 20.1165 36.9578H20.1202Z" fill="url(#paint3_radial_1947_1396)"/>
<g id="Vector_6" style="mix-blend-mode:multiply" opacity="0.5">
<path d="M24.624 22.5241C25.734 22.9253 28.3327 24.3616 29.1352 26.1953C29.9415 28.0328 30.3877 30.4928 30.0765 32.2403C29.7615 33.9878 31.7152 31.0966 32.0415 27.5378C32.394 23.6866 28.5165 19.9966 25.0177 19.3441C19.4227 18.2978 22.7377 21.8378 24.624 22.5241Z" fill="#DE376D"/>
</g>
<g id="Vector_7" style="mix-blend-mode:multiply" opacity="0.5">
<path d="M14.484 23.6866C9.66899 26.5216 10.1715 30.4928 10.4827 32.2403C10.7977 33.9878 8.844 31.0966 8.51775 27.5378C8.16525 23.6866 9.39899 22.0028 12.4102 20.1053C15.4215 18.2078 16.2127 22.6666 14.484 23.6866Z" fill="#DE376D"/>
</g>
<g id="Vector_8" style="mix-blend-mode:soft-light" opacity="0.5">
<path d="M32.394 25.9741C33.654 29.1353 36.4553 27.4028 35.799 25.4978C35.1428 23.5928 34.2653 21.3691 32.0903 20.0753C29.9152 18.7816 25.0777 16.5353 19.1977 16.9291C13.3177 17.3228 10.4227 18.2903 7.08899 20.8103C3.75149 23.3303 4.1565 26.8666 4.73775 27.4478C5.319 28.0291 7.07775 27.9391 7.31775 27.1328C7.55775 26.3266 7.31775 23.1428 12.4102 19.8353C13.869 18.8866 16.629 18.3278 20.0415 18.2978C23.454 18.2678 29.7202 19.2728 32.394 25.9703V25.9741Z" fill="white"/>
</g>
<g id="Vector_9" style="mix-blend-mode:soft-light" opacity="0.5">
<path d="M15.0765 19.5241C15.1928 20.6228 16.8878 22.0216 17.154 22.1116C17.424 22.2016 20.349 21.7928 20.5853 21.4628C20.8253 21.1328 21.4853 18.8941 20.9453 18.7178C20.4053 18.5378 14.994 18.7778 15.0728 19.5241H15.0765Z" fill="white"/>
</g>
<g id="Group_3">
<g id="Group_4">
<path id="Vector_10" fill-rule="evenodd" clip-rule="evenodd" d="M31.974 8.52908C32.3115 9.90908 29.304 11.5628 27.909 12.4966C25.4302 14.1541 22.749 15.7628 20.0602 17.2178C17.3677 15.7591 14.709 14.1541 12.2115 12.4928C10.809 11.5628 7.79023 9.87908 8.14648 8.52158C8.71273 6.35783 12.3915 2.88158 14.889 1.22783C17.4202 -0.448416 22.7452 -0.369666 25.2315 1.22783C27.7102 2.82158 31.4377 6.32783 31.974 8.52533V8.52908Z" fill="url(#paint4_radial_1947_1396)"/>
<g id="Vector_11" style="mix-blend-mode:soft-light">
<path d="M31.599 8.43908C31.1902 7.30283 25.5127 5.61908 24.7252 6.28658C23.289 7.50158 20.3752 16.8578 20.3752 16.8578C20.5027 16.9928 25.3102 14.1053 27.4777 12.5941C28.8765 11.6153 31.944 9.39158 31.6027 8.44283L31.599 8.43908Z" fill="#B5CAF1"/>
</g>
<g id="Vector_12" style="mix-blend-mode:multiply" opacity="0.5">
<path d="M15.1103 5.25533C16.284 4.22033 17.739 1.22408 17.5253 0.481581C17.5178 0.459081 15.2827 0.792832 13.9815 1.95908C12.0765 3.66158 8.754 7.70033 8.754 7.70033C8.814 7.79783 13.7415 6.46283 15.1103 5.25533Z" fill="#6746B3"/>
</g>
<g id="Vector_13" style="mix-blend-mode:multiply" opacity="0.3">
<path d="M15.3915 6.43283C15.9427 5.13908 23.3415 5.40908 24.0915 6.51533C25.0065 7.86158 20.7802 16.2578 20.0002 16.3066C18.999 16.3666 14.7652 7.90283 15.3915 6.43283Z" fill="#6746B3"/>
</g>
<path id="Vector_14" d="M24.7815 5.40157C26.5215 6.41782 31.2052 7.64407 31.2052 7.64407C31.3102 7.50907 25.3365 0.151571 23.1465 0.995321C22.8652 1.10407 24.0765 4.99282 24.7815 5.40157Z" fill="#FF1FC7"/>
<g id="Vector_15" style="mix-blend-mode:soft-light">
<path fill-rule="evenodd" clip-rule="evenodd" d="M9.28651 7.06284C10.7603 4.98534 12.7853 2.51409 14.829 1.35909C15.9278 0.736586 17.469 0.751594 17.3453 1.07409C17.2215 1.39659 16.1903 3.18534 16.014 2.65659C15.8378 2.12784 14.2665 3.59409 12.7178 4.92534C11.1653 6.25659 8.69401 7.90284 9.29026 7.06284H9.28651Z" fill="#B5CAF1"/>
</g>
<g id="Vector_16" style="mix-blend-mode:soft-light">
<path fill-rule="evenodd" clip-rule="evenodd" d="M16.0215 5.39407C15.6577 4.92532 16.644 1.71532 17.8065 0.890318C18.549 0.365318 21.5227 0.582817 22.284 0.912817C22.8727 1.16782 24.1065 5.16907 23.919 5.37157C23.2815 6.05782 16.4977 6.00532 16.0215 5.39407Z" fill="#B5CAF1"/>
</g>
<g id="Vector_17" style="mix-blend-mode:soft-light">
<path fill-rule="evenodd" clip-rule="evenodd" d="M24.294 4.24659C23.5328 2.34534 23.6978 0.995335 24.0203 1.11158C26.4803 1.99283 28.7228 4.49034 30.219 6.68034C31.224 8.15034 28.4715 4.92534 27.969 5.30034C27.4665 5.67534 24.7215 5.31909 24.294 4.24659Z" fill="#B5CAF1"/>
</g>
<g id="Vector_18" style="mix-blend-mode:soft-light" opacity="0.5">
<path d="M19.2803 16.3141C18.0578 14.0978 16.1828 9.06533 13.8053 8.71658C12.309 8.49533 10.4078 10.1791 10.9028 11.0003C11.8515 12.5641 14.3565 13.6853 16.044 14.6903C17.7803 15.7216 19.6553 17.0003 19.2803 16.3178V16.3141Z" fill="#FF1FC7"/>
</g>
<g id="Vector_19" style="mix-blend-mode:multiply" opacity="0.5">
<path d="M15.4778 6.85283C15.2528 8.19533 17.3828 10.2953 19.3853 9.75158C21.4065 9.20408 22.704 8.93408 22.794 10.0591C22.884 11.1803 24.639 7.10033 24.0953 6.51533C22.959 5.29283 15.7665 5.12033 15.4778 6.85283Z" fill="#6746B3"/>
</g>
<path id="Vector_20" d="M12.219 6.80033C13.2765 6.47408 15.039 6.58658 15.4515 7.19783C15.6053 7.43033 15.354 6.80409 15.7778 6.33534C16.0515 6.03534 18.4628 5.56284 18.4628 5.56284C18.4628 5.56284 16.104 5.56283 16.014 5.03033C15.9278 4.50158 16.4078 3.25284 16.4078 3.25284C16.4078 3.25284 15.5265 5.23284 14.049 5.85159C12.4778 6.50784 10.6178 7.25033 9.07275 7.65158C8.784 7.72658 9.86775 6.29034 9.86775 6.29034C9.86775 6.29034 8.25901 8.11658 8.13901 8.53283C8.02276 8.94908 8.32651 9.57908 8.57401 9.85658C8.57401 9.85658 7.9965 8.97534 8.55525 8.42034C9.114 7.86534 10.4003 7.36284 12.2153 6.80409L12.219 6.80033Z" fill="#E42A7B"/>
<path id="Vector_21" d="M19.3103 0.181578C17.9603 0.706578 17.0827 1.73407 17.0902 1.56907C17.0977 1.40032 17.274 0.470324 16.794 0.552824C16.3177 0.635324 17.7315 0.327826 18.4927 0.215326C19.254 0.106576 19.3103 0.181578 19.3103 0.181578Z" fill="#FF83BF"/>
<path id="Vector_22" d="M19.9628 5.59284C21.1065 5.63409 24.0428 5.68659 24.2003 7.35159C24.2753 8.14659 24.4928 6.29034 25.0665 6.17784C25.644 6.06534 26.9753 6.37659 26.919 6.29409C26.8628 6.20784 25.5465 5.93783 24.8978 5.31908C24.2528 4.70033 23.559 3.63159 23.6265 3.87159C23.694 4.10784 23.9565 5.27784 23.6378 5.41659C23.319 5.55909 17.5328 5.51034 19.959 5.59659L19.9628 5.59284Z" fill="#E42A7B"/>
<g id="Vector_23" style="mix-blend-mode:soft-light">
<path d="M20.979 16.4228C22.1865 16.3966 22.6965 11.0003 26.6227 10.5053C28.4077 10.2803 33.204 10.0778 30.354 7.78283C29.1352 6.80033 25.794 5.99784 25.0065 6.61659C24.1815 7.26159 20.5852 16.4341 20.979 16.4266V16.4228Z" fill="#B5CAF1"/>
</g>
<path id="Vector_24" d="M24.414 7.0291C25.2653 8.3416 25.3965 10.2278 24.834 10.6516C24.2715 11.0753 22.9853 11.4503 23.0753 10.9178C23.1653 10.3891 24.129 6.5941 24.4103 7.02535L24.414 7.0291Z" fill="white"/>
<path id="Vector_25" d="M23.8252 1.26159C23.6565 2.77659 26.094 2.75033 25.9927 2.35658C25.8915 1.96283 23.9002 0.594085 23.8252 1.26159Z" fill="white"/>
</g>
<path id="Vector_26" style="mix-blend-mode:screen" d="M20.3752 20.8928C27.9719 20.8928 34.1302 17.0027 34.1302 12.2041C34.1302 7.40541 27.9719 3.51532 20.3752 3.51532C12.7786 3.51532 6.62024 7.40541 6.62024 12.2041C6.62024 17.0027 12.7786 20.8928 20.3752 20.8928Z" fill="url(#paint5_radial_1947_1396)"/>
</g>
<path id="Vector_27" d="M29.1127 11.7278C28.7715 11.9978 25.1565 14.8666 24.9052 15.2641C24.7252 15.5528 24.9052 17.3266 24.9052 17.3266C23.9715 17.2516 20.7465 18.0466 20.0302 18.0466C19.314 18.0466 16.3215 17.0378 15.3877 17.1128C15.3877 17.1128 15.3877 17.1016 15.3877 17.0753C15.384 16.8541 15.3352 15.7103 15.0802 15.4178C13.6252 13.7603 11.2852 11.9491 10.9927 11.7316C11.3827 12.0016 15.654 14.6566 16.0515 14.6903C16.3552 14.7166 17.7577 14.5553 17.8515 14.5591C18.1815 14.5778 19.3327 10.3778 19.9102 9.65782C19.9627 9.59032 20.0115 9.55282 20.0565 9.55282C20.5552 9.53407 21.3915 14.4541 21.7365 14.5628C22.1002 14.6791 23.4652 14.9528 23.8477 14.8216C24.1627 14.7128 28.7415 11.9791 29.1202 11.7241L29.1127 11.7278Z" fill="url(#paint6_linear_1947_1396)"/>
<g id="Vector_28" style="mix-blend-mode:multiply" opacity="0.5">
<path d="M19.7752 18.0241C19.4565 18.1628 17.2702 16.9703 15.384 17.0753C15.3802 16.8541 15.3315 15.7103 15.0765 15.4178C13.6215 13.7603 11.2815 11.9491 10.989 11.7316C11.379 12.0016 15.6502 14.6566 16.0477 14.6903C16.3515 14.7166 17.754 14.5553 17.8477 14.5591C18.1777 14.5778 19.5015 10.1078 20.049 9.55658C20.0715 9.61658 20.0565 10.0853 20.0602 10.1528C20.1315 12.1703 20.3527 17.7728 19.779 18.0241H19.7752Z" fill="#DE376D"/>
</g>
<g id="Vector_29" style="mix-blend-mode:multiply" opacity="0.5">
<path d="M21.729 14.5666C22.689 15.1066 23.8327 15.1741 24.054 15.1028C24.7177 14.8778 28.7902 11.9303 28.7902 11.9303C28.7902 11.9303 24.1215 14.5103 23.5702 14.6453C23.139 14.7503 21.729 14.5666 21.729 14.5666Z" fill="#58395A"/>
</g>
<g id="Vector_30" style="mix-blend-mode:multiply" opacity="0.5">
<path d="M20.049 9.55658C20.214 9.55658 18.624 14.4653 18.1402 14.6753C17.6565 14.8853 16.044 14.6903 16.044 14.6903C16.044 14.6903 17.3527 14.4166 17.6452 14.2291C17.904 14.0641 19.719 9.55658 20.0452 9.55658H20.049Z" fill="#58395A"/>
</g>
<g id="Vector_31" style="mix-blend-mode:soft-light" opacity="0.5">
<path d="M20.0603 9.95033C22.2278 13.8541 20.0715 17.5591 20.049 17.4878C20.0265 17.4166 19.959 9.76658 20.0603 9.95033Z" fill="white"/>
</g>
<path id="Vector_32" d="M19.5165 36.7328C20.2852 37.2278 21.5265 36.7853 21.5715 36.6128C21.6202 36.4403 19.059 36.4403 19.5165 36.7328Z" fill="white"/>
</g>
<g id="Group_5">
<path id="Vector_33" style="mix-blend-mode:screen" opacity="0.3" fill-rule="evenodd" clip-rule="evenodd" d="M10.5577 6.42157C30.9127 15.1103 -12.2348 19.6666 4.17524 22.0591C26.3377 25.2916 13.2577 12.1253 27.3615 6.95783C30.7815 5.70533 44.9152 18.8341 41.514 26.3228C38.1165 33.8116 26.4615 32.1578 18.924 33.3953C11.3865 34.6328 10.9402 38.8928 10.9402 38.8928C10.9402 38.8928 7.61399 37.5728 10.3702 35.3453C13.1265 33.1178 19.9965 33.1178 26.3865 32.0866C32.7765 31.0516 38.394 24.7853 34.4227 19.8466C25.3777 8.59658 20.0115 22.8316 16.2277 25.2353C7.06274 31.0591 2.33024 27.0016 0.125244 21.9203C-1.08601 19.1228 6.76649 16.3853 11.6752 13.1303C16.584 9.87533 10.5577 6.42532 10.5577 6.42532V6.42157Z" fill="url(#paint7_linear_1947_1396)"/>
<path id="Vector_34" fill-rule="evenodd" clip-rule="evenodd" d="M33.4927 14.9491C33.4927 15.0466 33.414 15.1253 33.3165 15.1253C33.219 15.1253 33.1402 15.0466 33.1402 14.9491C33.1402 14.8516 33.219 14.7728 33.3165 14.7728C33.414 14.7728 33.4927 14.8516 33.4927 14.9491Z" fill="#8DFFF7"/>
<path id="Vector_35" fill-rule="evenodd" clip-rule="evenodd" d="M34.7977 11.8291C34.7977 12.0128 34.6477 12.1628 34.464 12.1628C34.2802 12.1628 34.1302 12.0128 34.1302 11.8291C34.1302 11.6453 34.2802 11.4953 34.464 11.4953C34.6477 11.4953 34.7977 11.6453 34.7977 11.8291Z" fill="#8DFFF7"/>
<path id="Vector_36" fill-rule="evenodd" clip-rule="evenodd" d="M10.0627 17.0416C10.0627 17.1428 9.98023 17.2216 9.88273 17.2216C9.78523 17.2216 9.70273 17.1391 9.70273 17.0416C9.70273 16.9441 9.78523 16.8616 9.88273 16.8616C9.98023 16.8616 10.0627 16.9441 10.0627 17.0416Z" fill="#8DFFF7"/>
<path id="Vector_37" d="M8.43524 13.2391C8.61128 13.2391 8.75398 13.0964 8.75398 12.9203C8.75398 12.7443 8.61128 12.6016 8.43524 12.6016C8.2592 12.6016 8.11649 12.7443 8.11649 12.9203C8.11649 13.0964 8.2592 13.2391 8.43524 13.2391Z" fill="#8DFFF7"/>
<path id="Vector_38" fill-rule="evenodd" clip-rule="evenodd" d="M8.90401 14.2103C8.90401 14.2516 8.87025 14.2853 8.829 14.2853C8.78775 14.2853 8.754 14.2516 8.754 14.2103C8.754 14.1691 8.78775 14.1353 8.829 14.1353C8.87025 14.1353 8.90401 14.1691 8.90401 14.2103Z" fill="#8DFFF7"/>
<path id="Vector_39" d="M32.229 5.37533C32.3553 5.37533 32.4577 5.27291 32.4577 5.14658C32.4577 5.02024 32.3553 4.91783 32.229 4.91783C32.1027 4.91783 32.0002 5.02024 32.0002 5.14658C32.0002 5.27291 32.1027 5.37533 32.229 5.37533Z" fill="#8DFFF7"/>
<path id="Vector_40" fill-rule="evenodd" clip-rule="evenodd" d="M29.4915 16.6853C29.4915 16.7828 29.4127 16.8616 29.3152 16.8616C29.2177 16.8616 29.139 16.7828 29.139 16.6853C29.139 16.5878 29.2177 16.5091 29.3152 16.5091C29.4127 16.5091 29.4915 16.5878 29.4915 16.6853Z" fill="#8DFFF7"/>
<path id="Vector_41" fill-rule="evenodd" clip-rule="evenodd" d="M40.7453 21.1666C40.7453 21.3166 40.6253 21.4366 40.4753 21.4366C40.3253 21.4366 40.2053 21.3166 40.2053 21.1666C40.2053 21.0166 40.3253 20.8966 40.4753 20.8966C40.6253 20.8966 40.7453 21.0166 40.7453 21.1666Z" fill="#8DFFF7"/>
<path id="Vector_42" fill-rule="evenodd" clip-rule="evenodd" d="M13.4565 26.6116C13.4565 26.6978 13.389 26.7653 13.3027 26.7653C13.2165 26.7653 13.149 26.6978 13.149 26.6116C13.149 26.5253 13.2165 26.4578 13.3027 26.4578C13.389 26.4578 13.4565 26.5253 13.4565 26.6116Z" fill="#8DFFF7"/>
</g>
</g>
<defs>
<linearGradient id="paint0_linear_1947_1396" x1="20.049" y1="16.6178" x2="20.049" y2="43.0403" gradientUnits="userSpaceOnUse">
<stop stop-color="#FF9600"/>
<stop offset="1" stop-color="#FFA900"/>
</linearGradient>
<linearGradient id="paint1_linear_1947_1396" x1="20.049" y1="16.6778" x2="20.049" y2="42.0391" gradientUnits="userSpaceOnUse">
<stop stop-color="#FFDE00"/>
<stop offset="0.95" stop-color="#FF3F00"/>
</linearGradient>
<linearGradient id="paint2_linear_1947_1396" x1="20.049" y1="18.2566" x2="20.049" y2="37.6928" gradientUnits="userSpaceOnUse">
<stop stop-color="#FF7200"/>
<stop offset="0.95" stop-color="#FF3F00"/>
</linearGradient>
<radialGradient id="paint3_radial_1947_1396" cx="0" cy="0" r="1" gradientUnits="userSpaceOnUse" gradientTransform="translate(19.7115 35.4691) scale(5.67375 5.67375)">
<stop stop-color="#FF9600"/>
<stop offset="1" stop-color="#FFA900"/>
</radialGradient>
<radialGradient id="paint4_radial_1947_1396" cx="0" cy="0" r="1" gradientUnits="userSpaceOnUse" gradientTransform="translate(20.0565 8.22796) rotate(180) scale(10.8113 9.73012)">
<stop stop-color="#FF0066"/>
<stop offset="1" stop-color="#590048"/>
</radialGradient>
<radialGradient id="paint5_radial_1947_1396" cx="0" cy="0" r="1" gradientUnits="userSpaceOnUse" gradientTransform="translate(20.4598 12.2041) scale(13.7282 8.68875)">
<stop stop-color="#FF10FF"/>
<stop offset="0.02" stop-color="#F60FF6"/>
<stop offset="0.13" stop-color="#BD0BBD"/>
<stop offset="0.25" stop-color="#8A088A"/>
<stop offset="0.37" stop-color="#600660"/>
<stop offset="0.49" stop-color="#3D033D"/>
<stop offset="0.62" stop-color="#220222"/>
<stop offset="0.74" stop-color="#0F000F"/>
<stop offset="0.87" stop-color="#030003"/>
<stop offset="1"/>
</radialGradient>
<linearGradient id="paint6_linear_1947_1396" x1="20.049" y1="18.0466" x2="20.049" y2="9.55657" gradientUnits="userSpaceOnUse">
<stop stop-color="#FFDE00"/>
<stop offset="0.95" stop-color="#FF3F00"/>
</linearGradient>
<linearGradient id="paint7_linear_1947_1396" x1="21.0202" y1="38.8966" x2="21.0202" y2="6.42157" gradientUnits="userSpaceOnUse">
<stop stop-color="#00FF00"/>
<stop offset="0.36" stop-color="#002AFF"/>
<stop offset="0.42" stop-color="#0023D6"/>
<stop offset="0.51" stop-color="#001A9E"/>
<stop offset="0.59" stop-color="#00126D"/>
<stop offset="0.68" stop-color="#000B46"/>
<stop offset="0.77" stop-color="#000627"/>
<stop offset="0.85" stop-color="#000211"/>
<stop offset="0.93" stop-color="#000004"/>
<stop offset="1"/>
</linearGradient>
</defs>
</svg>
