<svg width="20" height="20" viewBox="0 0 20 20" fill="none" xmlns="http://www.w3.org/2000/svg">
<g id="ic/right">
<path id="Vector" fill-rule="evenodd" clip-rule="evenodd" d="M3.125 9.99987C3.125 9.83411 3.19085 9.67514 3.30806 9.55793C3.42527 9.44072 3.58424 9.37487 3.75 9.37487H14.7417L10.1833 4.81653C10.0729 4.69805 10.0128 4.54135 10.0157 4.37943C10.0185 4.21751 10.0841 4.06303 10.1986 3.94852C10.3132 3.834 10.4676 3.76841 10.6296 3.76555C10.7915 3.7627 10.9482 3.8228 11.0667 3.9332L16.6917 9.5582C16.8087 9.67539 16.8745 9.83424 16.8745 9.99987C16.8745 10.1655 16.8087 10.3243 16.6917 10.4415L11.0667 16.0665C11.0094 16.1279 10.9404 16.1772 10.8638 16.2114C10.7871 16.2455 10.7044 16.2639 10.6204 16.2654C10.5365 16.2668 10.4532 16.2514 10.3753 16.22C10.2975 16.1885 10.2268 16.1417 10.1675 16.0824C10.1081 16.023 10.0613 15.9524 10.0299 15.8745C9.99846 15.7967 9.98303 15.7134 9.98451 15.6294C9.98599 15.5455 10.0044 15.4628 10.0385 15.3861C10.0727 15.3094 10.1219 15.2404 10.1833 15.1832L14.7417 10.6249H3.75C3.58424 10.6249 3.42527 10.559 3.30806 10.4418C3.19085 10.3246 3.125 10.1656 3.125 9.99987Z" fill="#666666"/>
</g>
</svg>
