<svg width="13" height="12" viewBox="0 0 13 12" fill="none" xmlns="http://www.w3.org/2000/svg">
<g id="ic/up">
<path id="Vector" fill-rule="evenodd" clip-rule="evenodd" d="M6.49062 10.1249C6.3909 10.1249 6.29526 10.0854 6.22475 10.0151C6.15424 9.94475 6.11462 9.84937 6.11462 9.74991V3.15491L3.37233 5.88991C3.30105 5.95615 3.20678 5.99222 3.10937 5.9905C3.01196 5.98879 2.91902 5.94943 2.85013 5.88072C2.78124 5.81202 2.74178 5.71933 2.74006 5.62218C2.73834 5.52502 2.7745 5.431 2.84092 5.35991L6.22492 1.98491C6.29542 1.91469 6.39098 1.87524 6.49062 1.87524C6.59026 1.87524 6.68583 1.91469 6.75633 1.98491L10.1403 5.35991C10.1773 5.39425 10.2069 5.43565 10.2275 5.48165C10.248 5.52764 10.2591 5.5773 10.2599 5.62765C10.2608 5.678 10.2515 5.72802 10.2326 5.77471C10.2137 5.82141 10.1856 5.86382 10.1499 5.89943C10.1142 5.93504 10.0716 5.96312 10.0248 5.98198C9.978 6.00084 9.92786 6.0101 9.87737 6.00921C9.82688 6.00832 9.77709 5.9973 9.73097 5.9768C9.68485 5.95631 9.64334 5.92676 9.60892 5.88991L6.86662 3.15491V9.74991C6.86662 9.84937 6.82701 9.94475 6.7565 10.0151C6.68598 10.0854 6.59034 10.1249 6.49062 10.1249Z" fill="#63D4A8"/>
</g>
</svg>
