<svg width="50" height="50" viewBox="0 0 50 50" fill="none" xmlns="http://www.w3.org/2000/svg">
<g id="Group 90">
<rect id="Rectangle 87" width="50" height="50" rx="25" fill="#0ACF83"/>
<path id="Subtract" fill-rule="evenodd" clip-rule="evenodd" d="M34.4052 37.4548C33.9091 37.4961 33.4294 37.2776 33.1125 36.8936C32.9773 36.7298 32.8218 36.5408 32.6551 36.3368C32.1408 35.7076 32.4477 34.7596 33.1918 34.4329C33.5465 34.2773 33.8745 34.1123 34.1768 33.9428C35.0086 33.4764 34.5097 32.8286 33.6158 33.1606C32.077 33.8069 30.5998 34.2377 29.1534 34.4839C26.199 35.0379 23.4908 34.884 21.1826 34.4532C19.4284 34.1146 17.9205 33.6222 16.6587 33.1298C15.9509 32.8529 15.1815 32.5143 14.4121 32.0835C14.3659 32.0527 14.3198 32.0296 14.2736 32.0066C14.2275 31.9835 14.1813 31.9604 14.1351 31.9296C14.0872 31.9057 14.058 31.8817 14.0329 31.8578C14.0188 31.8444 13.9814 31.8203 13.9645 31.8108C13.7682 31.7008 13.6029 31.9151 13.7551 32.0809C14.3485 32.7271 15.407 33.6614 17.0543 34.3975C17.746 34.7065 18.0254 35.5899 17.5493 36.1793C17.3464 36.4305 17.1563 36.6646 16.994 36.8639C16.6667 37.2658 16.1675 37.4961 15.6509 37.4519C13.084 37.2324 11.1732 36.3982 9.81578 35.4972C7.71591 34.1033 7.02674 31.4862 7.30211 28.9809C7.82823 24.1944 9.21571 20.1218 10.2566 17.6023C11.0129 15.7714 12.3008 14.1875 14.0687 13.2939C17.0441 11.7897 19.5165 11.6592 20.0572 11.6493C20.1272 11.648 20.1928 11.6797 20.2376 11.7335C20.3494 11.8677 20.2851 12.0731 20.1179 12.1236C17.2845 12.9799 15.2673 14.0446 14.0046 14.8492C13.7422 15.0163 13.914 15.2871 14.1967 15.1572C17.4896 13.7108 20.1055 13.3107 21.1826 13.2184L21.2516 13.2067C21.4069 13.1803 21.5446 13.1568 21.7058 13.1568C23.5831 12.9106 25.7066 12.8491 27.9224 13.0953C28.7512 13.1912 29.5974 13.3293 30.4574 13.5178C31.5285 13.7525 31.9263 12.9708 30.895 12.5983C30.6096 12.4952 30.314 12.3936 30.0083 12.2943C29.781 12.2205 29.7006 11.9379 29.8579 11.7581C29.9188 11.6885 30.0035 11.6478 30.0959 11.65C30.6932 11.6645 33.0995 11.816 35.9924 13.2639C37.8029 14.1701 39.119 15.7905 39.889 17.6629C40.9224 20.1759 42.2846 24.1973 42.8116 28.9188C43.0956 31.4633 42.3876 34.1222 40.2454 35.5243C38.8786 36.4189 36.9642 37.2419 34.4052 37.4548ZM19.305 23.1278C17.5508 23.1278 16.1659 24.6666 16.1659 26.5439C16.1659 28.4212 17.5816 29.9599 19.305 29.9599C21.0592 29.9599 22.4441 28.4212 22.4441 26.5439C22.4748 24.6666 21.0592 23.1278 19.305 23.1278ZM30.5379 23.1278C28.7837 23.1278 27.3989 24.6666 27.3989 26.5439C27.3989 28.4212 28.8145 29.9599 30.5379 29.9599C32.2921 29.9599 33.677 28.4212 33.677 26.5439C33.677 24.6666 32.2921 23.1278 30.5379 23.1278Z" fill="#EBEBED"/>
</g>
</svg>
