<svg width="50" height="50" viewBox="0 0 50 50" fill="none" xmlns="http://www.w3.org/2000/svg">
<g id="Group">
<path id="Vector" d="M47.9112 0H23.8337C23.8337 2.88263 24.9789 5.64719 27.0172 7.68552C29.0555 9.72384 31.8201 10.869 34.7027 10.869H39.138V15.1511C39.1419 21.1484 44.0027 26.0092 50 26.0131V2.08885C50 0.935208 49.0648 0 47.9112 0Z" fill="#FAAE1A"/>
<path id="Vector_2" d="M35.9978 11.9969H11.9204C11.9243 17.9943 16.7851 22.8551 22.7824 22.8589H27.2177V27.155C27.2254 33.1523 32.0894 38.01 38.0867 38.01V14.0858C38.0867 12.9322 37.1515 11.9969 35.9978 11.9969Z" fill="#FBA0E7"/>
<path id="Vector_3" d="M24.0774 23.9869H0C0 29.9897 4.8662 34.8559 10.869 34.8559H15.3182V39.138C15.322 45.1299 20.1744 49.9885 26.1663 50V26.0758C26.1663 24.9221 25.2311 23.9869 24.0774 23.9869Z" fill="#06F5DF"/>
</g>
</svg>
