<svg width="60" height="44" viewBox="0 0 60 44" fill="none" xmlns="http://www.w3.org/2000/svg">
<g id="TinyImage" clip-path="url(#clip0_1815_340)">
<path id="Vector" d="M41.2698 0H18.73C17.9047 0.000227864 17.1133 0.240805 16.5299 0.668833C15.9464 1.09686 15.6187 1.67729 15.6187 2.2825V5.91766L30.3257 8.78109L44.3823 5.91766V2.2825C44.3823 1.67714 44.0544 1.09658 43.4707 0.668529C42.887 0.240477 42.0953 0 41.2698 0V0ZM34.6206 15.4619L21.3444 11.1667L5.85693 15.4619V41.3377C5.85693 42.0438 6.23943 42.7209 6.92027 43.2202C7.60112 43.7195 8.52454 44 9.4874 44H34.6206L44.3823 29.7309L34.6206 15.4619Z" fill="#F3F5E6"/>
<path id="Vector_2" d="M44.3823 12.1215L34.6206 15.4619V44H50.5124C50.9892 44 51.4613 43.9311 51.9017 43.7973C52.3422 43.6635 52.7424 43.4674 53.0795 43.2202C53.4167 42.973 53.6841 42.6795 53.8665 42.3565C54.049 42.0335 54.1429 41.6873 54.1429 41.3376V15.4619L44.3812 12.1215H44.3823Z" fill="#D7D9CC"/>
<path id="Vector_3" d="M5.85693 23.1937H34.6206V36.27H5.85693V23.1937Z" fill="#80E2FF"/>
<path id="Vector_4" d="M12.4829 30.0927C12.3639 30.0927 12.2461 30.0755 12.1362 30.0421C12.0263 30.0088 11.9264 29.9598 11.8423 29.8981C11.7582 29.8365 11.6915 29.7632 11.646 29.6826C11.6004 29.602 11.577 29.5156 11.577 29.4284V28.3989C11.5726 28.3097 11.5928 28.2208 11.6363 28.1374C11.6798 28.0541 11.7458 27.978 11.8303 27.9138C11.9148 27.8496 12.0161 27.7985 12.1281 27.7636C12.2401 27.7287 12.3606 27.7107 12.4823 27.7107C12.604 27.7107 12.7244 27.7287 12.8364 27.7636C12.9485 27.7985 13.0497 27.8496 13.1342 27.9138C13.2187 27.978 13.2847 28.0541 13.3282 28.1374C13.3717 28.2208 13.3919 28.3097 13.3875 28.3989V29.4284C13.3875 29.6044 13.2923 29.7733 13.1226 29.8978C12.953 30.0224 12.7229 30.0925 12.4829 30.0927ZM27.9961 30.0927C27.7559 30.0927 27.5255 30.0227 27.3556 29.8981C27.1857 29.7736 27.0903 29.6046 27.0903 29.4284V28.3989C27.0859 28.3097 27.1061 28.2208 27.1496 28.1374C27.1931 28.0541 27.2591 27.978 27.3436 27.9138C27.4281 27.8496 27.5294 27.7985 27.6414 27.7636C27.7534 27.7287 27.8739 27.7107 27.9956 27.7107C28.1173 27.7107 28.2377 27.7287 28.3497 27.7636C28.4617 27.7985 28.563 27.8496 28.6475 27.9138C28.732 27.978 28.798 28.0541 28.8415 28.1374C28.885 28.2208 28.9052 28.3097 28.9008 28.3989V29.4284C28.9008 29.6046 28.8054 29.7736 28.6355 29.8981C28.4656 30.0227 28.2352 30.0927 27.995 30.0927H27.9961ZM20.2383 30.6418C19.2305 30.6418 18.2848 30.3325 17.6426 29.7936C17.5616 29.7283 17.4991 29.6517 17.459 29.5684C17.4188 29.4852 17.4016 29.3968 17.4085 29.3086C17.4154 29.2205 17.4463 29.1342 17.4992 29.0548C17.5522 28.9755 17.6262 28.9046 17.7169 28.8465C17.8076 28.7884 17.9132 28.7441 18.0275 28.7163C18.1419 28.6885 18.2626 28.6776 18.3827 28.6845C18.5028 28.6913 18.6199 28.7156 18.727 28.756C18.8342 28.7963 18.9292 28.852 19.0067 28.9197C19.3043 29.1706 19.7543 29.3141 20.2383 29.3141C20.7223 29.3141 21.1735 29.1706 21.4711 28.9197C21.5494 28.854 21.6445 28.8002 21.7511 28.7615C21.8577 28.7228 21.9736 28.6999 22.0923 28.694C22.2109 28.6881 22.33 28.6995 22.4427 28.7273C22.5554 28.7552 22.6595 28.7991 22.7491 28.8565C22.8386 28.9139 22.9119 28.9836 22.9647 29.0618C23.0175 29.14 23.0488 29.225 23.0568 29.312C23.0648 29.399 23.0494 29.4863 23.0113 29.569C22.9733 29.6516 22.9135 29.728 22.8352 29.7936C22.5099 30.0627 22.1099 30.2776 21.662 30.4239C21.2141 30.5702 20.7287 30.6445 20.2383 30.6418Z" fill="#3B484A"/>
<path id="Vector_5" d="M44.3823 5.9176L34.6206 15.4618H54.144L44.3823 5.9176Z" fill="#55C2E3"/>
<path id="Vector_6" d="M5.85693 15.4618L15.6187 5.9176H44.3823L34.6206 15.4618H5.85693Z" fill="#80E2FF"/>
<path id="Vector_7" d="M34.6206 23.1937H54.1429V36.27H34.6206V23.1937Z" fill="#55C2E3"/>
</g>
<defs>
<clipPath id="clip0_1815_340">
<rect width="60" height="44" fill="white"/>
</clipPath>
</defs>
</svg>
