<svg width="50" height="50" viewBox="0 0 50 50" fill="none" xmlns="http://www.w3.org/2000/svg">
<g id="Logo" clip-path="url(#clip0_1815_352)">
<g id="Artboard">
<path id="Oval" d="M25 50C38.8071 50 50 38.8071 50 25C50 11.1929 38.8071 0 25 0C11.1929 0 0 11.1929 0 25C0 38.8071 11.1929 50 25 50Z" fill="url(#paint0_linear_1815_352)"/>
<path id="Path" fill-rule="evenodd" clip-rule="evenodd" d="M11.3164 24.7362C18.6044 21.5609 23.4642 19.4676 25.8958 18.4562C32.8386 15.5684 34.2812 15.0668 35.2215 15.0502C35.4283 15.0466 35.8907 15.0978 36.1903 15.3409C36.4432 15.5461 36.5128 15.8233 36.5461 16.0179C36.5794 16.2125 36.6208 16.6557 36.5879 17.0021C36.2117 20.9552 34.5837 30.5483 33.7555 34.9758C33.4051 36.8493 32.715 37.4774 32.047 37.5389C30.5952 37.6725 29.4928 36.5795 28.0866 35.6577C25.8863 34.2154 24.6433 33.3175 22.5075 31.91C20.0392 30.2835 21.6393 29.3895 23.0459 27.9285C23.4141 27.5461 29.8107 21.7279 29.9345 21.2001C29.95 21.1341 29.9644 20.888 29.8182 20.7581C29.672 20.6281 29.4563 20.6726 29.3006 20.7079C29.0799 20.758 25.5648 23.0813 18.7554 27.6779C17.7577 28.363 16.854 28.6968 16.0443 28.6793C15.1516 28.66 13.4346 28.1746 12.1581 27.7597C10.5925 27.2507 9.34818 26.9817 9.45653 26.1174C9.51297 25.6672 10.1329 25.2068 11.3164 24.7362Z" fill="white"/>
</g>
</g>
<defs>
<linearGradient id="paint0_linear_1815_352" x1="42" y1="6.65" x2="8.3" y2="43.65" gradientUnits="userSpaceOnUse">
<stop stop-color="#FF868C"/>
<stop offset="0.520833" stop-color="#E27BE8"/>
<stop offset="1" stop-color="#2991FF"/>
</linearGradient>
<clipPath id="clip0_1815_352">
<rect width="50" height="50" fill="white"/>
</clipPath>
</defs>
</svg>
