<svg width="48" height="48" viewBox="0 0 48 48" fill="none" xmlns="http://www.w3.org/2000/svg">
<g id="Frame">
<g id="Group">
<g id="Group_2">
<path id="Vector" d="M24 1.875C11.775 1.875 1.875 11.775 1.875 24C1.875 36.225 11.775 46.125 24 46.125C36.225 46.125 46.125 36.225 46.125 24C46.125 11.775 36.225 1.875 24 1.875ZM24 43.5938C13.1812 43.5938 4.40625 34.8187 4.40625 24C4.40625 13.1812 13.1812 4.40625 24 4.40625C34.8187 4.40625 43.5938 13.1812 43.5938 24C43.5938 34.8187 34.8187 43.5938 24 43.5938ZM29.775 27.7688C30.4875 26.6813 30.9 25.4062 30.9 24C30.9 23.5125 30.8438 23.0438 30.75 22.575L25.1438 22.5563L29.3625 19.6688C28.4438 18.525 27.15 17.6813 25.6687 17.325L24.075 22.4625L22.4813 17.3063C21.0562 17.6438 19.8 18.4125 18.8625 19.4813L23.3812 22.575L17.325 22.5938C17.2313 23.0438 17.175 23.5313 17.175 24.0188C17.175 25.5 17.6438 26.8687 18.4313 27.975L23.2875 24.5062L21.1875 30.2625C22.05 30.6562 23.0063 30.8812 24.0188 30.8812C25.1063 30.8812 26.1375 30.6375 27.0563 30.1687L24.75 24.4313L29.775 27.7688ZM8.325 12.2812C6.13125 15.2063 4.7625 18.75 4.48125 22.6125L17.3063 22.5938C17.55 21.4312 18.0938 20.3625 18.8625 19.5L8.325 12.2812ZM18.4313 27.975L8.0625 35.3625C10.2375 38.4188 13.275 40.8375 16.8375 42.225L21.2062 30.2625C20.0812 29.7562 19.125 28.95 18.4313 27.975ZM27.0563 30.15L31.8187 41.9625C35.325 40.4438 38.2875 37.9313 40.3688 34.7812L29.775 27.75C29.1 28.7812 28.1625 29.625 27.0563 30.15ZM43.5563 22.6125C43.2938 18.8438 41.9625 15.375 39.8625 12.4875L29.3625 19.6875C30.0375 20.5125 30.525 21.5063 30.75 22.5938L43.5563 22.6125ZM25.6687 17.3438L29.4375 5.175C27.7125 4.6875 25.8938 4.425 24.0188 4.425C22.1813 4.425 20.3812 4.6875 18.6937 5.15625L22.4625 17.325C22.95 17.2125 23.475 17.1562 24.0188 17.1562C24.6 17.1375 25.1437 17.2125 25.6687 17.3438ZM32.7937 10.9312L25.6312 17.325C25.1062 17.1938 24.5625 17.1375 24 17.1375C20.2125 17.1375 17.1375 20.2125 17.1375 24C17.1375 27.7875 20.2125 30.8625 24 30.8625C27.7875 30.8625 30.8625 27.7875 30.8625 24C30.8625 22.6125 30.45 21.3188 29.7375 20.25L32.7937 10.9312Z" fill="#FAC06F"/>
</g>
</g>
</g>
</svg>
